<svg xmlns="http://www.w3.org/2000/svg" viewBox="0 0 100 116" fill="none">
  <!-- Outer P bowl — dark forest green -->
  <path d="M 40 20 C 96 20 96 69 40 69"
        stroke="#005F4A" stroke-width="11" stroke-linecap="round"/>

  <!-- Inner teal accent arcs -->
  <path d="M 40 31 C 80 31 80 58 40 58"
        stroke="#1EB68F" stroke-width="7" stroke-linecap="round"/>
  <path d="M 40 40 C 68 40 68 49 40 49"
        stroke="#1EB68F" stroke-width="5.5" stroke-linecap="round"/>

  <!-- Pump body — P vertical stem -->
  <rect x="23" y="19" width="19" height="60" rx="4" fill="#005F4A"/>

  <!-- Pump window (teal tint) -->
  <rect x="27" y="29" width="11" height="15" rx="2" fill="#1EB68F" opacity="0.45"/>

  <!-- Nozzle arm extending upper-left -->
  <path d="M 27 21 Q 19 16 11 11"
        stroke="#005F4A" stroke-width="7.5" stroke-linecap="round"/>

  <!-- Nozzle head -->
  <rect x="5"  y="7"  width="9"  height="10" rx="2.5" fill="#005F4A"/>
  <rect x="11" y="9.5" width="7" height="5"  rx="2"   fill="#005F4A"/>

  <!-- Connector block at base of stem -->
  <rect x="40" y="75" width="11" height="7" rx="2" fill="#005F4A"/>

  <!-- Hose curve at bottom of P -->
  <path d="M 31 79 Q 31 96 33 99 Q 37 106 46 106 L 52 106"
        stroke="#005F4A" stroke-width="8.5" stroke-linecap="round" stroke-linejoin="round"/>
</svg>
