<svg xmlns="http://www.w3.org/2000/svg" xmlns:xlink="http://www.w3.org/1999/xlink" width="500" zoomAndPan="magnify" viewBox="0 0 375 112.499997" height="150" preserveAspectRatio="xMidYMid meet" version="1.0"><defs><g/><clipPath id="d0370aff27"><path d="M 19 0 L 173 0 L 173 112.003906 L 19 112.003906 Z M 19 0 " clip-rule="nonzero"/></clipPath><clipPath id="45ba3bbdcb"><rect x="0" width="154" y="0" height="113"/></clipPath><clipPath id="ef92434a38"><path d="M 175 0 L 327 0 L 327 112.003906 L 175 112.003906 Z M 175 0 " clip-rule="nonzero"/></clipPath><clipPath id="e2f181df51"><rect x="0" width="152" y="0" height="113"/></clipPath><clipPath id="957aa0ddf3"><rect x="0" width="38" y="0" height="35"/></clipPath></defs><g clip-path="url(#d0370aff27)"><g transform="matrix(1, 0, 0, 1, 19, 0)"><g clip-path="url(#45ba3bbdcb)"><g fill="#15a680" fill-opacity="1"><g transform="translate(0.468475, 83.283111)"><g><path d="M 27.375 17.75 C 24.007812 17.75 20.753906 17.4375 17.609375 16.8125 C 14.460938 16.195312 11.613281 15.234375 9.0625 13.921875 C 7.882812 13.296875 7.09375 12.546875 6.6875 11.671875 C 6.28125 10.804688 6.15625 9.921875 6.3125 9.015625 C 6.46875 8.109375 6.835938 7.3125 7.421875 6.625 C 8.015625 5.945312 8.75 5.484375 9.625 5.234375 C 10.5 4.984375 11.398438 5.109375 12.328125 5.609375 C 15.078125 6.972656 17.679688 7.859375 20.140625 8.265625 C 22.597656 8.671875 24.703125 8.875 26.453125 8.875 C 30.617188 8.875 33.742188 7.859375 35.828125 5.828125 C 37.921875 3.804688 38.96875 0.804688 38.96875 -3.171875 L 38.96875 -11.59375 L 39.8125 -11.59375 C 38.875 -8.414062 36.925781 -5.875 33.96875 -3.96875 C 31.007812 -2.070312 27.660156 -1.125 23.921875 -1.125 C 19.804688 -1.125 16.222656 -2.070312 13.171875 -3.96875 C 10.117188 -5.875 7.75 -8.539062 6.0625 -11.96875 C 4.382812 -15.394531 3.546875 -19.378906 3.546875 -23.921875 C 3.546875 -27.347656 4.03125 -30.445312 5 -33.21875 C 5.96875 -35.988281 7.335938 -38.367188 9.109375 -40.359375 C 10.890625 -42.359375 13.039062 -43.90625 15.5625 -45 C 18.082031 -46.09375 20.867188 -46.640625 23.921875 -46.640625 C 27.785156 -46.640625 31.164062 -45.6875 34.0625 -43.78125 C 36.957031 -41.882812 38.84375 -39.378906 39.71875 -36.265625 L 38.78125 -33.921875 L 38.78125 -40.5625 C 38.78125 -42.488281 39.289062 -43.953125 40.3125 -44.953125 C 41.34375 -45.953125 42.765625 -46.453125 44.578125 -46.453125 C 46.441406 -46.453125 47.875 -45.953125 48.875 -44.953125 C 49.875 -43.953125 50.375 -42.488281 50.375 -40.5625 L 50.375 -4.578125 C 50.375 2.835938 48.410156 8.410156 44.484375 12.140625 C 40.554688 15.878906 34.851562 17.75 27.375 17.75 Z M 27.09375 -10 C 29.53125 -10 31.617188 -10.554688 33.359375 -11.671875 C 35.109375 -12.796875 36.460938 -14.398438 37.421875 -16.484375 C 38.390625 -18.578125 38.875 -21.054688 38.875 -23.921875 C 38.875 -28.222656 37.8125 -31.601562 35.6875 -34.0625 C 33.570312 -36.519531 30.707031 -37.75 27.09375 -37.75 C 24.664062 -37.75 22.578125 -37.1875 20.828125 -36.0625 C 19.085938 -34.945312 17.734375 -33.359375 16.765625 -31.296875 C 15.804688 -29.242188 15.328125 -26.785156 15.328125 -23.921875 C 15.328125 -19.617188 16.382812 -16.222656 18.5 -13.734375 C 20.625 -11.242188 23.488281 -10 27.09375 -10 Z M 27.09375 -10 "/></g></g></g><g fill="#15a680" fill-opacity="1"><g transform="translate(56.912664, 83.283111)"><g><path d="M 21.125 0.9375 C 17.820312 0.9375 14.875 0.300781 12.28125 -0.96875 C 9.695312 -2.25 7.671875 -3.976562 6.203125 -6.15625 C 4.742188 -8.34375 4.015625 -10.804688 4.015625 -13.546875 C 4.015625 -16.910156 4.882812 -19.570312 6.625 -21.53125 C 8.375 -23.5 11.210938 -24.914062 15.140625 -25.78125 C 19.066406 -26.65625 24.332031 -27.09375 30.9375 -27.09375 L 35.609375 -27.09375 L 35.609375 -20.375 L 31.03125 -20.375 C 27.164062 -20.375 24.078125 -20.1875 21.765625 -19.8125 C 19.460938 -19.4375 17.828125 -18.796875 16.859375 -17.890625 C 15.898438 -16.992188 15.421875 -15.734375 15.421875 -14.109375 C 15.421875 -12.054688 16.132812 -10.375 17.5625 -9.0625 C 19 -7.757812 20.992188 -7.109375 23.546875 -7.109375 C 25.609375 -7.109375 27.429688 -7.585938 29.015625 -8.546875 C 30.609375 -9.515625 31.867188 -10.835938 32.796875 -12.515625 C 33.734375 -14.203125 34.203125 -16.132812 34.203125 -18.3125 L 34.203125 -29.0625 C 34.203125 -32.175781 33.515625 -34.414062 32.140625 -35.78125 C 30.773438 -37.15625 28.472656 -37.84375 25.234375 -37.84375 C 23.421875 -37.84375 21.472656 -37.625 19.390625 -37.1875 C 17.304688 -36.757812 15.109375 -36.015625 12.796875 -34.953125 C 11.617188 -34.390625 10.578125 -34.234375 9.671875 -34.484375 C 8.765625 -34.734375 8.0625 -35.242188 7.5625 -36.015625 C 7.070312 -36.796875 6.828125 -37.65625 6.828125 -38.59375 C 6.828125 -39.53125 7.070312 -40.445312 7.5625 -41.34375 C 8.0625 -42.25 8.90625 -42.921875 10.09375 -43.359375 C 12.957031 -44.546875 15.710938 -45.390625 18.359375 -45.890625 C 21.003906 -46.390625 23.421875 -46.640625 25.609375 -46.640625 C 30.085938 -46.640625 33.773438 -45.953125 36.671875 -44.578125 C 39.578125 -43.203125 41.742188 -41.128906 43.171875 -38.359375 C 44.609375 -35.585938 45.328125 -32.019531 45.328125 -27.65625 L 45.328125 -5.234375 C 45.328125 -3.304688 44.859375 -1.828125 43.921875 -0.796875 C 42.984375 0.234375 41.644531 0.75 39.90625 0.75 C 38.15625 0.75 36.796875 0.234375 35.828125 -0.796875 C 34.867188 -1.828125 34.390625 -3.304688 34.390625 -5.234375 L 34.390625 -9.71875 L 35.140625 -9.71875 C 34.703125 -7.539062 33.84375 -5.65625 32.5625 -4.0625 C 31.289062 -2.476562 29.6875 -1.25 27.75 -0.375 C 25.820312 0.5 23.613281 0.9375 21.125 0.9375 Z M 21.125 0.9375 "/></g></g></g><g fill="#15a680" fill-opacity="1"><g transform="translate(108.030169, 83.283111)"><g><path d="M 22.796875 0.9375 C 20.117188 0.9375 17.285156 0.65625 14.296875 0.09375 C 11.304688 -0.46875 8.628906 -1.429688 6.265625 -2.796875 C 5.265625 -3.421875 4.5625 -4.15625 4.15625 -5 C 3.75 -5.84375 3.59375 -6.679688 3.6875 -7.515625 C 3.78125 -8.359375 4.09375 -9.09375 4.625 -9.71875 C 5.15625 -10.34375 5.835938 -10.75 6.671875 -10.9375 C 7.515625 -11.125 8.4375 -10.96875 9.4375 -10.46875 C 11.925781 -9.28125 14.257812 -8.453125 16.4375 -7.984375 C 18.625 -7.523438 20.773438 -7.296875 22.890625 -7.296875 C 25.878906 -7.296875 28.109375 -7.804688 29.578125 -8.828125 C 31.046875 -9.859375 31.78125 -11.210938 31.78125 -12.890625 C 31.78125 -14.328125 31.296875 -15.429688 30.328125 -16.203125 C 29.359375 -16.984375 27.910156 -17.5625 25.984375 -17.9375 L 16.640625 -19.71875 C 12.773438 -20.46875 9.828125 -21.882812 7.796875 -23.96875 C 5.773438 -26.050781 4.765625 -28.742188 4.765625 -32.046875 C 4.765625 -35.046875 5.585938 -37.632812 7.234375 -39.8125 C 8.890625 -41.988281 11.179688 -43.671875 14.109375 -44.859375 C 17.035156 -46.046875 20.398438 -46.640625 24.203125 -46.640625 C 26.941406 -46.640625 29.507812 -46.34375 31.90625 -45.75 C 34.3125 -45.15625 36.632812 -44.234375 38.875 -42.984375 C 39.8125 -42.484375 40.453125 -41.828125 40.796875 -41.015625 C 41.140625 -40.210938 41.21875 -39.390625 41.03125 -38.546875 C 40.84375 -37.703125 40.46875 -36.953125 39.90625 -36.296875 C 39.34375 -35.648438 38.640625 -35.25 37.796875 -35.09375 C 36.960938 -34.9375 36.015625 -35.109375 34.953125 -35.609375 C 33.015625 -36.597656 31.160156 -37.3125 29.390625 -37.75 C 27.617188 -38.1875 25.921875 -38.40625 24.296875 -38.40625 C 21.242188 -38.40625 18.984375 -37.875 17.515625 -36.8125 C 16.054688 -35.757812 15.328125 -34.359375 15.328125 -32.609375 C 15.328125 -31.304688 15.757812 -30.21875 16.625 -29.34375 C 17.5 -28.46875 18.84375 -27.875 20.65625 -27.5625 L 30 -25.796875 C 34.050781 -25.046875 37.117188 -23.671875 39.203125 -21.671875 C 41.285156 -19.679688 42.328125 -17.003906 42.328125 -13.640625 C 42.328125 -9.097656 40.550781 -5.53125 37 -2.9375 C 33.457031 -0.351562 28.722656 0.9375 22.796875 0.9375 Z M 22.796875 0.9375 "/></g></g></g></g></g></g><g clip-path="url(#ef92434a38)"><g transform="matrix(1, 0, 0, 1, 175, 0)"><g clip-path="url(#e2f181df51)"><g fill="#0a5240" fill-opacity="1"><g transform="translate(0.533228, 83.283111)"><g><path d="M 27.1875 0.9375 C 22.394531 0.9375 18.222656 -0.0390625 14.671875 -2 C 11.117188 -3.96875 8.375 -6.757812 6.4375 -10.375 C 4.507812 -13.988281 3.546875 -18.222656 3.546875 -23.078125 C 3.546875 -26.753906 4.09375 -30.039062 5.1875 -32.9375 C 6.28125 -35.832031 7.851562 -38.289062 9.90625 -40.3125 C 11.957031 -42.34375 14.445312 -43.90625 17.375 -45 C 20.3125 -46.09375 23.582031 -46.640625 27.1875 -46.640625 C 29.25 -46.640625 31.476562 -46.359375 33.875 -45.796875 C 36.269531 -45.234375 38.53125 -44.296875 40.65625 -42.984375 C 41.644531 -42.359375 42.296875 -41.609375 42.609375 -40.734375 C 42.921875 -39.867188 42.984375 -38.984375 42.796875 -38.078125 C 42.609375 -37.179688 42.21875 -36.40625 41.625 -35.75 C 41.039062 -35.09375 40.3125 -34.6875 39.4375 -34.53125 C 38.5625 -34.375 37.597656 -34.578125 36.546875 -35.140625 C 35.171875 -35.953125 33.765625 -36.554688 32.328125 -36.953125 C 30.898438 -37.359375 29.53125 -37.5625 28.21875 -37.5625 C 26.164062 -37.5625 24.359375 -37.234375 22.796875 -36.578125 C 21.242188 -35.929688 19.921875 -35 18.828125 -33.78125 C 17.742188 -32.570312 16.921875 -31.0625 16.359375 -29.25 C 15.796875 -27.445312 15.515625 -25.359375 15.515625 -22.984375 C 15.515625 -18.378906 16.617188 -14.75 18.828125 -12.09375 C 21.035156 -9.445312 24.164062 -8.125 28.21875 -8.125 C 29.53125 -8.125 30.882812 -8.3125 32.28125 -8.6875 C 33.6875 -9.0625 35.109375 -9.65625 36.546875 -10.46875 C 37.597656 -11.03125 38.546875 -11.21875 39.390625 -11.03125 C 40.234375 -10.84375 40.929688 -10.421875 41.484375 -9.765625 C 42.046875 -9.109375 42.390625 -8.328125 42.515625 -7.421875 C 42.640625 -6.523438 42.53125 -5.640625 42.1875 -4.765625 C 41.851562 -3.890625 41.21875 -3.171875 40.28125 -2.609375 C 38.21875 -1.367188 36.035156 -0.46875 33.734375 0.09375 C 31.429688 0.65625 29.25 0.9375 27.1875 0.9375 Z M 27.1875 0.9375 "/></g></g></g><g fill="#0a5240" fill-opacity="1"><g transform="translate(44.361575, 83.283111)"><g><path d="M 21.125 0.9375 C 17.820312 0.9375 14.875 0.300781 12.28125 -0.96875 C 9.695312 -2.25 7.671875 -3.976562 6.203125 -6.15625 C 4.742188 -8.34375 4.015625 -10.804688 4.015625 -13.546875 C 4.015625 -16.910156 4.882812 -19.570312 6.625 -21.53125 C 8.375 -23.5 11.210938 -24.914062 15.140625 -25.78125 C 19.066406 -26.65625 24.332031 -27.09375 30.9375 -27.09375 L 35.609375 -27.09375 L 35.609375 -20.375 L 31.03125 -20.375 C 27.164062 -20.375 24.078125 -20.1875 21.765625 -19.8125 C 19.460938 -19.4375 17.828125 -18.796875 16.859375 -17.890625 C 15.898438 -16.992188 15.421875 -15.734375 15.421875 -14.109375 C 15.421875 -12.054688 16.132812 -10.375 17.5625 -9.0625 C 19 -7.757812 20.992188 -7.109375 23.546875 -7.109375 C 25.609375 -7.109375 27.429688 -7.585938 29.015625 -8.546875 C 30.609375 -9.515625 31.867188 -10.835938 32.796875 -12.515625 C 33.734375 -14.203125 34.203125 -16.132812 34.203125 -18.3125 L 34.203125 -29.0625 C 34.203125 -32.175781 33.515625 -34.414062 32.140625 -35.78125 C 30.773438 -37.15625 28.472656 -37.84375 25.234375 -37.84375 C 23.421875 -37.84375 21.472656 -37.625 19.390625 -37.1875 C 17.304688 -36.757812 15.109375 -36.015625 12.796875 -34.953125 C 11.617188 -34.390625 10.578125 -34.234375 9.671875 -34.484375 C 8.765625 -34.734375 8.0625 -35.242188 7.5625 -36.015625 C 7.070312 -36.796875 6.828125 -37.65625 6.828125 -38.59375 C 6.828125 -39.53125 7.070312 -40.445312 7.5625 -41.34375 C 8.0625 -42.25 8.90625 -42.921875 10.09375 -43.359375 C 12.957031 -44.546875 15.710938 -45.390625 18.359375 -45.890625 C 21.003906 -46.390625 23.421875 -46.640625 25.609375 -46.640625 C 30.085938 -46.640625 33.773438 -45.953125 36.671875 -44.578125 C 39.578125 -43.203125 41.742188 -41.128906 43.171875 -38.359375 C 44.609375 -35.585938 45.328125 -32.019531 45.328125 -27.65625 L 45.328125 -5.234375 C 45.328125 -3.304688 44.859375 -1.828125 43.921875 -0.796875 C 42.984375 0.234375 41.644531 0.75 39.90625 0.75 C 38.15625 0.75 36.796875 0.234375 35.828125 -0.796875 C 34.867188 -1.828125 34.390625 -3.304688 34.390625 -5.234375 L 34.390625 -9.71875 L 35.140625 -9.71875 C 34.703125 -7.539062 33.84375 -5.65625 32.5625 -4.0625 C 31.289062 -2.476562 29.6875 -1.25 27.75 -0.375 C 25.820312 0.5 23.613281 0.9375 21.125 0.9375 Z M 21.125 0.9375 "/></g></g></g><g fill="#0a5240" fill-opacity="1"><g transform="translate(95.47908, 83.283111)"><g><path d="M 11.875 17.5625 C 10 17.5625 8.5625 17.0625 7.5625 16.0625 C 6.570312 15.070312 6.078125 13.613281 6.078125 11.6875 L 6.078125 -40.5625 C 6.078125 -42.488281 6.570312 -43.953125 7.5625 -44.953125 C 8.5625 -45.953125 9.96875 -46.453125 11.78125 -46.453125 C 13.644531 -46.453125 15.070312 -45.953125 16.0625 -44.953125 C 17.0625 -43.953125 17.5625 -42.488281 17.5625 -40.5625 L 17.5625 -33.265625 L 16.546875 -36.078125 C 17.472656 -39.253906 19.382812 -41.804688 22.28125 -43.734375 C 25.1875 -45.671875 28.566406 -46.640625 32.421875 -46.640625 C 36.410156 -46.640625 39.914062 -45.671875 42.9375 -43.734375 C 45.957031 -41.804688 48.304688 -39.082031 49.984375 -35.5625 C 51.671875 -32.039062 52.515625 -27.816406 52.515625 -22.890625 C 52.515625 -18.035156 51.671875 -13.816406 49.984375 -10.234375 C 48.304688 -6.648438 45.972656 -3.890625 42.984375 -1.953125 C 39.992188 -0.0234375 36.472656 0.9375 32.421875 0.9375 C 28.628906 0.9375 25.296875 -0.0078125 22.421875 -1.90625 C 19.554688 -3.8125 17.628906 -6.289062 16.640625 -9.34375 L 17.75 -9.34375 L 17.75 11.6875 C 17.75 13.613281 17.234375 15.070312 16.203125 16.0625 C 15.179688 17.0625 13.738281 17.5625 11.875 17.5625 Z M 29.15625 -7.9375 C 31.457031 -7.9375 33.476562 -8.5 35.21875 -9.625 C 36.96875 -10.75 38.328125 -12.414062 39.296875 -14.625 C 40.265625 -16.832031 40.75 -19.585938 40.75 -22.890625 C 40.75 -27.878906 39.6875 -31.601562 37.5625 -34.0625 C 35.445312 -36.519531 32.644531 -37.75 29.15625 -37.75 C 26.851562 -37.75 24.828125 -37.203125 23.078125 -36.109375 C 21.335938 -35.023438 19.984375 -33.375 19.015625 -31.15625 C 18.046875 -28.945312 17.5625 -26.191406 17.5625 -22.890625 C 17.5625 -17.972656 18.617188 -14.25 20.734375 -11.71875 C 22.859375 -9.195312 25.664062 -7.9375 29.15625 -7.9375 Z M 29.15625 -7.9375 "/></g></g></g></g></g></g><g transform="matrix(1, 0, 0, 1, 318, 10)"><g clip-path="url(#957aa0ddf3)"><g fill="#fa7109" fill-opacity="1"><g transform="translate(0.532567, 27.315668)"><g><path d="M 14 -17.453125 L 14 -14.5625 L 8.953125 -14.5625 L 8.953125 0 L 5.515625 0 L 5.515625 -14.5625 L 0.484375 -14.5625 L 0.484375 -17.453125 Z M 14 -17.453125 "/></g></g></g><g fill="#fa7109" fill-opacity="1"><g transform="translate(15.002323, 27.315668)"><g><path d="M 5.4375 0 L 2.265625 0 L 2.265625 -17.453125 L 6.78125 -17.453125 L 11.203125 -4.625 L 11.453125 -4.625 L 15.84375 -17.453125 L 20.25 -17.453125 L 20.25 0 L 16.984375 0 L 16.984375 -11.53125 L 16.6875 -11.578125 L 12.640625 0 L 9.765625 0 L 5.734375 -11.578125 L 5.4375 -11.53125 Z M 5.4375 0 "/></g></g></g></g></g></svg>